<?xml version="1.0" encoding="UTF-8"?>
<svg version="1.1" xml:space="preserve" xmlns="http://www.w3.org/2000/svg" xmlns:cc="http://creativecommons.org/ns#" xmlns:dc="http://purl.org/dc/elements/1.1/" xmlns:rdf="http://www.w3.org/1999/02/22-rdf-syntax-ns#"><metadata><rdf:RDF><cc:Work rdf:about=""><dc:format>image/svg+xml</dc:format><dc:type rdf:resource="http://purl.org/dc/dcmitype/StillImage"/></cc:Work></rdf:RDF></metadata><g transform="matrix(1.3333 0 0 -1.3333 -958.64 2287.8)"><g transform="scale(.1227)" fill="#242935"><path d="m8262.9 12862c5.87-3.4 10.26-8.6 12.06-14.2 0.98-3 1.71-7.4-0.57-11.3-4.16-7.1-17.44-8.6-27.79-2.5-10.52 6-15.81 18-11.49 25.4 2.36 4.1 7.57 6.5 13.85 6.5 4.73 0 9.54-1.4 13.94-3.9zm-50.21-86.2c14.76-8.5 31.22-13 47.85-13 30.48 0 57.37 14.9 71.96 39.8 11.49 19.7 13.77 43.8 6.36 66.3-7.01 21.3-22.01 39.5-42.06 51.2-14.67 8.5-31.21 13.1-47.84 13.1-30.48 0-57.37-14.9-71.96-39.9-23.15-39.8-7.18-92.5 35.69-117.5"/><path d="m8326.7 11500h-339.69v198.5c0 18.6-18.1 33.6-36.68 33.6-18.56 0-36.67-15-36.67-33.6v-198.5h-242.56c0.5 8.2 0.52 22.1 0.52 34.8 0 40.9 101.33 137.3 199.32 231.2 145.16 139.2 325.77 312 423.82 507.6 49.95 91.7 94.13 194.5 131.37 306.2 55.58 166.9 56.4 293.7 2.53 377.1-33.66 52.1-86.88 83.2-154.12 90.1-12.14 1.2-23.8 2-34.55 2-91.95 0-124.76-44.6-151.1-80.4-22.48-30.5-37.33-50.4-90.28-50.4h-0.03c-5.07 0-10.46 0-16.07 0.4-32.36 6.8-63.81 12.1-94.68 17.7-131.27 23.6-210.52 41.5-210.52 88.2v68.3c0 1.5 21.83 2.1 32.27 2.6 51.96 2.2 147.03 6.5 147.03 108.1v187.3h-1043.2v-187.3c0-101.6 95.06-105.9 147.03-108.1 10.44-0.5 24.12-1.1 32.27-2.6v-68.3c0-46.7-78.75-64.4-209.55-87.8-28.42-5.1-57.47-10.4-86.93-16.5-3.63-0.6-18.74-2.3-22.4-2.4h-2.89c-52.97 0-67.77 20.1-90.24 50.6-26.34 35.8-59.09 80.3-151 80.3-10.81 0-22.43-0.7-34.54-1.9-67.22-6.9-120.52-38-154.14-90.1-53.9-83.4-53.03-210.3 2.54-377.2 91.15-273.5 198.66-417.7 213.25-436.5 100.36-142.9 236.18-273 345.33-377.7 98.1-94 199.53-189.6 199.53-230.5 0-13.1 0.17-26.6 0.79-34.8h-246.1v83.2c0 18.5-18.1 33.6-36.67 33.6s-36.68-15.1-36.68-33.6v-83.2h-340.07c-256.75 252.7-415.85 606.8-415.85 996.5 0 222.7 46.87 431.8 144.67 619.2v-43c0-18.5 14.04-33.6 32.6-33.6 18.57 0 32.6 15.1 32.6 33.6v163.4c0 0.2-0.9 0.3-0.9 0.5 133.45 214.4 318.75 390.5 546.95 507.7v-575.5c0-18.5 18.11-33.6 36.68-33.6s36.67 15.1 36.67 33.6v608.3c163 76.3 342.3 120.6 546.05 125.2v-156.9c0-18.5 14.03-33.6 32.6-33.6s32.6 15.1 32.6 33.6v156.9c195.6-4.7 374.9-49.1 546.05-125.5v-79.4c0-18.6 18.11-33.7 36.67-33.7 18.58 0 36.68 15.1 36.68 33.7v46.5c440.1-235.1 757.3-705.1 757.3-1247.4 0-389.7-160.8-743.8-417.61-996.5zm-1161.2 1050.6c0 306.9 224.28 362.2 233.74 364.3l25.44 5.9v175.5c32.6 10.8 73.35 34.9 73.35 72.5v59h80.12c-40.69-24.4-63.82-73.3-63.82-124.1v-79.2c0-186.7 190.86-221.1 344.79-248.8 238.89-42.9 343.23-74.5 343.23-227.4 0-122-69.39-257.7-211.13-420.7h-369.51l-187.82-241.6c-71.54 100.5-268.39 398-268.39 664.6zm446.63 553.1v-79.2c0-106.4 127.88-129.6 264.86-154.2 31.07-5.6 62.43-11.4 94.54-18.2l3.95-0.6c8.13-0.7 15.86-1 23.33-1 86.94 0 118.72 43.3 144.33 78 22.62 30.7 38.92 52.9 96.87 52.9 8.56 0 17.84-0.5 27.71-1.5 46.86-4.8 81.99-24.9 104.48-59.7 29.01-45 50.94-136.9-9.86-319.4-36.02-108.1-78.73-207.6-126.9-295.9l-0.57 2c-31.46-62.9-72.7-122.2-118.85-179.3h-37c127.81 154.9 190.33 293.6 190.33 420.7 0 225.1-194.2 258.3-399.43 295.2-169.81 30.5-290.39 59.9-290.39 181v79.2c0 38.6 25.45 69.5 65.82 80.6 18.89 5.3 39.26 6.1 60.6 7.1 7.18 0.3 17.67 0.7 27.64 1.4l33.39 2.2v98h-268.95v32.7h293.4v-122.2c0-28.4-10-37.7-82.7-40.9-39.12-1.7-96.6-4.3-96.6-58.9zm-554.2-79.2v79.2c0 54.6-57.48 57.2-96.6 58.9-72.7 3.2-82.7 12.5-82.7 40.9v122.2h546.05v-155.7c-8.15-4.9-21.41-11.1-35.79-12.5l-29.41-2.9v-182.4c-73.35-26.6-261.14-125.5-261.14-421.6 0-107.9 28.52-219 68.28-321.5l-109.03-116c-46.29 73.1-155.68 219.6-287.69 219.6-117.64 0-131.7 68.4-132.73 75.7l-68.24-3.6v-301.2c-24.45 25.8-39.96 52.1-58.68 78.8l-0.47 1.4c-4.54 5.8-112.31 145.7-202.68 417-60.78 182.5-38.76 274.4-9.69 319.4 22.46 34.8 57.69 54.9 104.55 59.7 9.85 1 19.2 1.5 27.74 1.5 57.92 0 74.28-22.2 96.9-52.9 25.6-34.7 57.47-78 144.43-78h3.95c7.49 0.1 28.99 2.5 34.85 3.7 28.96 6 56.19 11.2 84.2 16.2 136.59 24.6 263.9 47.7 263.9 154.1zm11.03-1489.7c0 69.7-85.73 152.8-218.35 279.9-65.12 62.5-143.13 133.3-208.33 210.9v274.2c24.45-20.1 71.21-34.3 129.5-34.3 109.2 0 217.83-161.5 250.83-223.8l21.52-41.6 151.14 161.1c87.47-194.9 203.59-344.6 211.39-354.6l26.35-33.5 221.34 281.2h405.73c-76.65-89.7-160.95-168.8-235.68-240.5-132.5-127-220.03-209.3-220.03-278.9 0-16.3-0.41-26.7-0.9-34.9h-533.4c-0.61 8.2-1.11 18.4-1.11 34.8zm265.9-442.4c-351.05 0-672.51 122.4-919.33 342.4h1838.7c-246.84-220-568.28-342.4-919.33-342.4zm9.53 2877.4c-2.93 0.9-5.95 1.5-9.14 1.5-3.17 0-6.19-0.6-9.1-1.4-809.41-4.8-1466.4-664.6-1466.4-1475.1 0-813.4 661.75-1475.1 1475.2-1475.1s1475.2 661.7 1475.2 1475.1c0 810.2-656.57 1469.9-1465.6 1475"/><path d="m6417.7 12834c-4.42-2.5-9.24-3.9-13.93-3.9h-0.01c-6.29 0-11.48 2.4-13.85 6.5-2.28 3.9-1.59 8.3-0.6 11.3 1.85 5.6 6.26 10.8 12.08 14.2 4.42 2.5 9.25 3.9 13.95 3.9 6.3 0 11.47-2.4 13.84-6.5 4.35-7.4-1.01-19.4-11.48-25.5zm-2.36 99.3c-16.6 0-33.13-4.6-47.83-13.1-20.11-11.7-35.05-29.9-42.07-51.2-7.43-22.5-5.11-46.6 6.35-66.2 14.55-25 41.47-39.9 71.97-39.9h0.01c16.58 0 33.13 4.5 47.8 13 42.87 25 58.9 77.7 35.74 117.5-14.57 25-41.48 39.9-71.97 39.9"/><path d="m7335 13663c-18.57 0-32.6-15-32.6-33.6v-124.9c0-18.6 14.03-33.7 32.6-33.7s32.6 15.1 32.6 33.7v124.9c0 18.6-14.03 33.6-32.6 33.6"/><path d="m6719.7 13096c-18.57 0-36.68-15-36.68-33.6v-38.4c0-18.6 18.11-33.7 36.68-33.7s36.67 15.1 36.67 33.7v38.4c0 18.6-18.1 33.6-36.67 33.6"/><path d="m6719.7 11664c18.57 0 36.67 15.1 36.67 33.7v38.4c0 18.6-18.1 33.6-36.67 33.6s-36.68-15-36.68-33.6v-38.4c0-18.6 18.11-33.7 36.68-33.7"/><path d="m7950.3 13212c-18.56 0-36.67-15.1-36.67-33.7v-38.4c0-18.6 18.11-33.6 36.67-33.6 18.58 0 36.68 15 36.68 33.6v38.4c0 18.6-18.1 33.7-36.68 33.7"/><path d="m7950.3 13068c-18.56 0-36.67-15-36.67-33.6v-38.5c0-18.5 18.11-33.6 36.67-33.6 18.58 0 36.68 15.1 36.68 33.6v38.5c0 18.6-18.1 33.6-36.68 33.6"/><path d="m7950.3 13615c-18.56 0-36.67-15.1-36.67-33.6v-278.7c0-18.6 18.11-33.7 36.67-33.7 18.58 0 36.68 15.1 36.68 33.7v278.7c0 18.5-18.1 33.6-36.68 33.6"/><path d="m6104.4 12203c-18.56 0-32.6-15.1-32.6-33.6v-86.5c0-18.6 14.04-33.7 32.6-33.7 18.57 0 32.6 15.1 32.6 33.7v86.5c0 18.5-14.03 33.6-32.6 33.6"/><path d="m6104.4 12952c-18.56 0-32.6-15.1-32.6-33.6v-624.7c0-18.6 14.04-33.6 32.6-33.6 18.57 0 32.6 15 32.6 33.6v624.7c0 18.5-14.03 33.6-32.6 33.6"/><path d="m8565.6 12164c-18.58 0-32.6-15.1-32.6-33.7v-163.3c0-18.6 14.02-33.7 32.6-33.7s32.6 15.1 32.6 33.7v163.3c0 18.6-14.02 33.7-32.6 33.7"/><path d="m8565.6 12808c-18.58 0-32.6-15-32.6-33.6v-499.7c0-18.6 14.02-33.7 32.6-33.7s32.6 15.1 32.6 33.7v499.7c0 18.6-14.02 33.6-32.6 33.6"/><path d="m8565.6 13000c-18.58 0-32.6-15-32.6-33.6v-48c0-18.6 14.02-33.7 32.6-33.7s32.6 15.1 32.6 33.7v48c0 18.6-14.02 33.6-32.6 33.6"/></g></g></svg>
